<svg xmlns="http://www.w3.org/2000/svg" xmlns:xlink="http://www.w3.org/1999/xlink" width="1366" zoomAndPan="magnify" viewBox="0 0 1024.5 576" height="768" preserveAspectRatio="xMidYMid meet" version="1.0"><defs><filter x="0%" y="0%" width="100%" height="100%" id="33fdaa57d9"><feColorMatrix values="0 0 0 0 1 0 0 0 0 1 0 0 0 0 1 0 0 0 1 0" color-interpolation-filters="sRGB"/></filter><mask id="45ef201131"><g filter="url(#33fdaa57d9)"><rect x="-102.45" width="1229.4" fill="#000000" y="-57.6" height="691.2" fill-opacity="0.39"/></g></mask><clipPath id="0c5bf6780a"><path d="M 0.390625 0.671875 L 462.164062 0.671875 L 462.164062 539.660156 L 0.390625 539.660156 Z M 0.390625 0.671875 " clip-rule="nonzero"/></clipPath><clipPath id="3df892ebcf"><rect x="0" width="464" y="0" height="540"/></clipPath></defs><g mask="url(#45ef201131)"><g transform="matrix(1, 0, 0, 1, 245, 18)"><g clip-path="url(#3df892ebcf)"><g clip-path="url(#0c5bf6780a)"><path fill="#000000" d="M 231.277344 0.671875 L 0.488281 77.671875 L 0.488281 270.164062 C 0.488281 424.160156 231.277344 539.660156 231.277344 539.660156 C 231.277344 539.660156 462.070312 424.160156 462.070312 270.164062 L 462.070312 77.671875 Z M 212.046875 349.511719 L 114.730469 252.070312 L 155.503906 211.261719 L 212.046875 267.855469 L 345.519531 134.265625 L 386.292969 175.074219 Z M 212.046875 349.511719 " fill-opacity="1" fill-rule="nonzero"/></g></g></g></g></svg>